<svg xmlns="http://www.w3.org/2000/svg" xmlns:xlink="http://www.w3.org/1999/xlink" xmlns:lucid="lucid" width="1253.67" height="1276.45"><g transform="translate(-102.33333333333336 -27.55000000000001)" lucid:page-tab-id="HWEp-vi-RSFO"><path d="M0 0h2345.52v1360H0z" fill="#fff"/><path d="M260 260h360v173H260z" stroke="#333" stroke-width="2" fill="#ffeca9"/><path d="M260 335.2h360" stroke="#333" stroke-width="2" fill="none"/><use xlink:href="#a" transform="matrix(1,0,0,1,268,268) translate(109.06574074074075 20.133333333333333)"/><use xlink:href="#b" transform="matrix(1,0,0,1,268,268) translate(130.27222222222224 49.73333333333333)"/><use xlink:href="#c" transform="matrix(1,0,0,1,272,343.2) translate(135.17962962962963 31.633333333333333)"/><use xlink:href="#d" transform="matrix(1,0,0,1,272,343.2) translate(148.1638888888889 61.233333333333334)"/><path d="M260 60.82h360v144H260z" stroke="#333" stroke-width="2" fill="#ffdba9"/><path d="M260 136.02h360" stroke="#333" stroke-width="2" fill="none"/><use xlink:href="#e" transform="matrix(1,0,0,1,268,68.82499999999999) translate(108.41481481481483 20.133333333333333)"/><use xlink:href="#f" transform="matrix(1,0,0,1,268,68.82499999999999) translate(96.80092592592592 49.73333333333333)"/><use xlink:href="#g" transform="matrix(1,0,0,1,272,144.02499999999998) translate(96.39814814814817 31.433333333333334)"/><path d="M440 258.5v-52.18" stroke="#333" fill="none"/><path d="M440.5 259h-1v-.5h1zM440.5 206.34h-1v-.52h1z" fill="#333"/><use xlink:href="#h" transform="matrix(1,0,0,1,448,230.2) translate(0 19.73333333333333)"/><use xlink:href="#i" transform="matrix(1,0,0,1,390.88888888888886,205.02499999999998) translate(0 19.73333333333333)"/><path d="M900 1040h360v207H900z" stroke="#333" stroke-width="2" fill="#ffeca9"/><path d="M900 1119.2h360" stroke="#333" stroke-width="2" fill="none"/><use xlink:href="#a" transform="matrix(1,0,0,1,908,1048) translate(109.06574074074075 20.13333333333333)"/><use xlink:href="#j" transform="matrix(1,0,0,1,908,1048) translate(150.7935185185185 52.39999999999999)"/><use xlink:href="#k" transform="matrix(1,0,0,1,912,1127.2) translate(98.2138888888889 31.33333333333334)"/><use xlink:href="#l" transform="matrix(1,0,0,1,912,1127.2) translate(94.71944444444446 60.93333333333334)"/><use xlink:href="#d" transform="matrix(1,0,0,1,912,1127.2) translate(148.1638888888889 90.53333333333333)"/><path d="M260 1040h360v207H260z" stroke="#333" stroke-width="2" fill="#ffeca9"/><path d="M260 1119.2h360" stroke="#333" stroke-width="2" fill="none"/><use xlink:href="#a" transform="matrix(1,0,0,1,268,1048) translate(109.06574074074075 20.13333333333333)"/><use xlink:href="#m" transform="matrix(1,0,0,1,268,1048) translate(128.18240740740742 52.39999999999999)"/><use xlink:href="#c" transform="matrix(1,0,0,1,272,1127.2) translate(135.17962962962963 31.33333333333334)"/><use xlink:href="#n" transform="matrix(1,0,0,1,272,1127.2) translate(128.97870370370373 60.93333333333334)"/><use xlink:href="#o" transform="matrix(1,0,0,1,272,1127.2) translate(115.99444444444445 90.53333333333333)"/><path d="M730.75 1145h-78.63v-3h78.63zm166.75 0h-69.6v-3h69.6z" fill="#333"/><path d="M653.12 1143.5l-15.15 14.85-14.85-14.85 14.85-14.85z" fill="#fff"/><path d="M655.26 1143.5l-17.3 16.96L621 1143.5l16.96-16.96zm-30.02 0l12.74 12.74 13-12.74-13-12.74zM899 1145h-1.54v-3H899z" fill="#333"/><use xlink:href="#h" transform="matrix(1,0,0,1,655.0221518987343,1109.9) translate(0 19.73333333333333)"/><use xlink:href="#h" transform="matrix(1,0,0,1,859.5205696202532,1109.9) translate(0 19.73333333333333)"/><use xlink:href="#p" transform="matrix(1,0,0,1,730.7526488513831,1128.7) translate(0.005000000000002558 19.73333333333333)"/><path d="M900 680h360v203H900z" stroke="#333" stroke-width="2" fill="#b2d6ef"/><path d="M900 755.2h360" stroke="#333" stroke-width="2" fill="none"/><use xlink:href="#q" transform="matrix(1,0,0,1,908,688) translate(98.787962962963 20.133333333333333)"/><use xlink:href="#r" transform="matrix(1,0,0,1,908,688) translate(121.36481481481482 49.73333333333333)"/><use xlink:href="#k" transform="matrix(1,0,0,1,912,763.2) translate(98.2138888888889 31.33333333333334)"/><use xlink:href="#l" transform="matrix(1,0,0,1,912,763.2) translate(94.71944444444446 60.93333333333334)"/><use xlink:href="#s" transform="matrix(1,0,0,1,912,763.2) translate(79.09722222222226 90.53333333333333)"/><path d="M602.5 780h295" stroke="#333" stroke-width="3" fill="none"/><path d="M602.54 781.5H601v-3h1.54zM899 781.5h-1.54v-3H899z" fill="#333"/><use xlink:href="#h" transform="matrix(1,0,0,1,606.1867088607595,746.4000000000002) translate(0 19.73333333333333)"/><use xlink:href="#t" transform="matrix(1,0,0,1,880.3253633380216,746.4000000000002) translate(0 19.73333333333333)"/><path d="M181.5 769.4l.37 2.82 1.04 2.5 1.68 2.2 2.2 1.67 2.5 1.03 2.82.37h85.4v3h-85.6l-3.4-.45-3.25-1.34-2.8-2.15-2.16-2.8-1.35-3.25-.45-3.4V425.08h3zm76-635.15h-65.4l-2.82.37-2.5 1.04-2.2 1.67-1.67 2.18-1.03 2.53-.37 2.82v250.63h-3V144.65l.45-3.4 1.34-3.25 2.15-2.8 2.8-2.16 3.25-1.34 3.4-.45h65.6z" fill="#333"/><path d="M279 783h-1.54v-3H279zM259 134.25h-1.54v-3H259z" fill="#333"/><use xlink:href="#h" transform="matrix(1,0,0,1,242.5,747.9000000000001) translate(0 19.73333333333333)"/><use xlink:href="#t" transform="matrix(1,0,0,1,238.34276840131267,99.14893026941374) translate(0 19.73333333333333)"/><use xlink:href="#u" transform="matrix(1,0,0,1,118.33333333333336,395.47830199973197) translate(0.005000000000002558 19.73333333333333)"/><path d="M441.5 1037.5h-3v-61.2h3zm0-90.8h-3v-61.2h3z" fill="#333"/><path d="M441.5 1039h-3v-1.54h3zM441.5 885.54h-3V884h3z" fill="#333"/><use xlink:href="#h" transform="matrix(1,0,0,1,448,1010.2) translate(0 19.73333333333333)"/><use xlink:href="#h" transform="matrix(1,0,0,1,395.00000000000006,883.2) translate(0 19.73333333333333)"/><use xlink:href="#v" transform="matrix(1,0,0,1,381.1425925925926,946.7) translate(0.005000000000002558 19.73333333333333)"/><path d="M1104.17 928.5l3.4.45 3.25 1.34 2.8 2.15 2.16 2.8 1.34 3.25.45 3.4v95.6h-3v-95.4l-.37-2.82-1.04-2.5-1.67-2.2-2.2-1.67-2.5-1.03-2.83-.37h-228v-3zm-582.4-7.78l1.03 2.5 1.68 2.2 2.18 1.67 2.5 1.03 2.83.37H647.3v3H531.8l-3.4-.45-3.25-1.34-2.8-2.14-2.17-2.8-1.34-3.25-.45-3.4v-32.6h3v32.4z" fill="#333"/><path d="M521.4 885.54h-3V884h3zM1117.57 1039h-3v-1.54h3z" fill="#333"/><use xlink:href="#h" transform="matrix(1,0,0,1,527.8939873417721,883.500935149301) translate(0 19.73333333333333)"/><use xlink:href="#h" transform="matrix(1,0,0,1,1124.0702245078917,1010.2000000000003) translate(0 19.73333333333333)"/><use xlink:href="#w" transform="matrix(1,0,0,1,647.3235074585671,915.2) translate(0.0049999999999954525 19.73333333333333)"/><path d="M441.5 677.5h-3v-95.12h3zm136-129.5H452.1l-2.82.37-2.5 1.04-2.2 1.68-1.3 1.7h-3.4l.4-1.03 2.17-2.8 2.8-2.16 3.25-1.35 3.4-.45h125.6z" fill="#333"/><path d="M441.5 679h-3v-1.54h3zM579 548h-1.54v-3H579z" fill="#333"/><use xlink:href="#h" transform="matrix(1,0,0,1,448,650.2) translate(0 19.73333333333333)"/><use xlink:href="#h" transform="matrix(1,0,0,1,542.5000000000001,512.9000000000001) translate(0 19.73333333333333)"/><use xlink:href="#x" transform="matrix(1,0,0,1,350.58333333333337,552.7760115733) translate(0.0049999999999954525 19.73333333333333)"/><path d="M1011.22 677.5h-3V561.3h3zM902.5 548v-3h67.97v3z" fill="#333"/><path d="M902.54 548H901v-3h1.54zM1011.22 679h-3v-1.54h3z" fill="#333"/><use xlink:href="#h" transform="matrix(1,0,0,1,900.901001631003,512.9000000000001) translate(0 19.73333333333333)"/><use xlink:href="#h" transform="matrix(1,0,0,1,1017.721463900524,650.2000000000003) translate(0 19.73333333333333)"/><use xlink:href="#y" transform="matrix(1,0,0,1,970.4720374129525,531.7) translate(0.004999999999999005 19.73333333333333)"/><path d="M1292.5 345.45l3.25 1.34 2.8 2.15 2.16 2.8 1.35 3.25.45 3.4v773.2l-.45 3.4-1.34 3.25-2.15 2.8-2.8 2.16-3.25 1.35-3.4.45h-26.6v-3h26.4l2.82-.37 2.5-1.04 2.2-1.68 1.67-2.2 1.03-2.5.37-2.82V358.6l-.37-2.82-1.04-2.5-1.68-2.2-2.2-1.67-2.5-1.03-2.82-.37H908.58v-3h380.52zM652.13 348v-3h159.3v3z" fill="#333"/><path d="M653.12 346.5l-15.15 14.85-14.85-14.85 14.85-14.85z" fill="#fff"/><path d="M655.26 346.5l-17.3 16.96L621 346.5l16.96-16.96zm-30.02 0l12.74 12.74 13-12.74-13-12.74zM1262.54 1145H1261v-3h1.54z" fill="#333"/><use xlink:href="#h" transform="matrix(1,0,0,1,650.7417815396169,312.90000000000003) translate(0 19.73333333333333)"/><use xlink:href="#h" transform="matrix(1,0,0,1,1264.4477848101267,1147.5) translate(0 19.73333333333333)"/><use xlink:href="#p" transform="matrix(1,0,0,1,811.4240149321977,331.7) translate(0.005000000000002558 19.73333333333333)"/><path d="M1331.5 279.17l3.25 1.35 2.8 2.15 2.16 2.8 1.35 3.25.45 3.4v983.98l-.45 3.4-1.34 3.25-2.15 2.8-2.8 2.16-3.25 1.35-3.4.45H451.9l-3.4-.45-3.25-1.34-2.8-2.15-2.16-2.8-1.35-3.25-.45-3.4v-26.6h3v26.4l.37 2.82 1.04 2.5 1.68 2.2 2.2 1.67 2.5 1.03 2.82.37h875.8l2.82-.37 2.5-1.04 2.2-1.68 1.67-2.2 1.03-2.5.37-2.82V292.32l-.37-2.82-1.04-2.5-1.68-2.2-2.2-1.66-2.5-1.04-2.82-.37H906.13v-3h421.97zm-679.38 2.56v-3h156.85v3z" fill="#333"/><path d="M653.12 280.23l-15.15 14.85-14.85-14.85 14.85-14.85z" fill="#fff"/><path d="M655.26 280.23l-17.3 16.96L621 280.22l16.96-16.96zm-30.02 0l12.74 12.74 13-12.74-13-12.74zM441.5 1249.54h-3V1248h3z" fill="#333"/><use xlink:href="#p" transform="matrix(1,0,0,1,808.9732246668582,265.426674578059) translate(0.005000000000002558 19.73333333333333)"/><use xlink:href="#h" transform="matrix(1,0,0,1,650.9453480668741,246.626674578059) translate(0 19.73333333333333)"/><use xlink:href="#h" transform="matrix(1,0,0,1,395.00000000000006,1247.2000000000005) translate(0 19.73333333333333)"/><path d="M700.2 991.5H536.05l-2.82.37-2.5 1.04-2.2 1.68-1.67 2.2-1.04 2.5-.37 2.82v5.77h-3v-5.97l.45-3.4 1.35-3.25 2.16-2.8 2.82-2.16 3.24-1.35 3.4-.45H700.2zm381.3-13.4l-.45 3.4-1.34 3.25-2.15 2.8-2.8 2.16-3.25 1.35-3.4.45H796.48v-3h271.42l2.82-.37 2.5-1.04 2.2-1.68 1.67-2.2 1.03-2.5.37-2.82v-92.4h3z" fill="#333"/><path d="M1081.5 885.54h-3V884h3z" fill="#333"/><path d="M538.8 1022.03l-14.84 14.85-14.85-14.85 14.86-15.15z" fill="#fff"/><path d="M540.92 1022.04L523.96 1039 507 1022.04l16.96-17.3zm-29.7-.02l12.74 12.74 12.74-12.74-12.74-13z" fill="#333"/><use xlink:href="#z" transform="matrix(1,0,0,1,1088.0000000000002,883.2330433860523) translate(0 19.555555555555557)"/><use xlink:href="#z" transform="matrix(1,0,0,1,541.5440152695911,994.0000000000001) translate(0 19.555555555555557)"/><use xlink:href="#A" transform="matrix(1,0,0,1,700.1921161183491,975.3333333333334) translate(0.005000000000002558 19.555555555555557)"/><path d="M1146.26 414.1l3.24 1.36 2.8 2.15 2.16 2.82 1.35 3.24.45 3.4V533.4l-.4 1h-.05l-.05 143.1h-3l.05-144.26.42-1 .03-.02V427.27l-.36-2.82-1.06-2.52-1.67-2.18-2.18-1.67-2.52-1.04-2.82-.37h-241.5v-3h241.7zm-494.13 2.57v-3H804v3z" fill="#333"/><path d="M1155.75 677.46V679h-3v-1.54z" fill="#333"/><path d="M653.12 415.17l-15.15 14.85-14.85-14.85 14.85-14.85z" fill="#fff"/><path d="M655.26 415.17l-17.3 16.96L621 415.17l16.96-16.96zm-30.02 0l12.74 12.74 13-12.73-13-12.74z" fill="#333"/><use xlink:href="#h" transform="matrix(1,0,0,1,1162.2584478118906,650.2045385633068) translate(0 19.73333333333333)"/><use xlink:href="#h" transform="matrix(1,0,0,1,650.9525316455697,381.5684994725739) translate(0 19.73333333333333)"/><use xlink:href="#p" transform="matrix(1,0,0,1,804.0058134083451,400.36849947257383) translate(0.005000000000002558 19.73333333333333)"/><path d="M900 47.55h360v173H900z" stroke="#333" stroke-width="2" fill="#ffdba9"/><path d="M900 122.75h360" stroke="#333" stroke-width="2" fill="none"/><use xlink:href="#e" transform="matrix(1,0,0,1,908,55.55000000000001) translate(108.41481481481483 20.133333333333333)"/><use xlink:href="#B" transform="matrix(1,0,0,1,908,55.55000000000001) translate(144.62685185185185 49.73333333333333)"/><use xlink:href="#C" transform="matrix(1,0,0,1,912,130.75) translate(111.23240740740742 31.633333333333333)"/><use xlink:href="#D" transform="matrix(1,0,0,1,912,130.75) translate(115.30925925925928 61.233333333333334)"/><path d="M897.5 131.62h-275" stroke="#333" stroke-width="3" fill="none"/><path d="M899 133.13h-1.54v-3H899zM622.54 133.13H621v-3h1.54z" fill="#333"/><g><use xlink:href="#h" transform="matrix(1,0,0,1,862.5,98.02499999999995) translate(0 19.73333333333333)"/></g><g><use xlink:href="#E" transform="matrix(1,0,0,1,622.4651898734178,98.02499999999995) translate(0 19.73333333333333)"/></g><path d="M580 460h320v173H580z" stroke="#333" stroke-width="2" fill="#b2d6ef"/><path d="M580 535.2h320" stroke="#333" stroke-width="2" fill="none"/><g><use xlink:href="#q" transform="matrix(1,0,0,1,588,468) translate(78.787962962963 20.133333333333333)"/><use xlink:href="#F" transform="matrix(1,0,0,1,588,468) translate(91.73796296296298 49.73333333333333)"/></g><g><use xlink:href="#c" transform="matrix(1,0,0,1,592,543.2) translate(115.17962962962963 31.633333333333333)"/><use xlink:href="#G" transform="matrix(1,0,0,1,592,543.2) translate(117.44074074074075 61.233333333333334)"/></g><path d="M280 680h320v203H280z" stroke="#333" stroke-width="2" fill="#b2d6ef"/><path d="M280 755.2h320" stroke="#333" stroke-width="2" fill="none"/><g><use xlink:href="#q" transform="matrix(1,0,0,1,288,688) translate(78.787962962963 20.133333333333333)"/><use xlink:href="#H" transform="matrix(1,0,0,1,288,688) translate(128.1212962962963 49.73333333333333)"/></g><g><use xlink:href="#I" transform="matrix(1,0,0,1,292,763.2) translate(95.13796296296297 31.33333333333334)"/><use xlink:href="#J" transform="matrix(1,0,0,1,292,763.2) translate(99.21481481481482 60.93333333333334)"/><use xlink:href="#K" transform="matrix(1,0,0,1,292,763.2) translate(113.05555555555557 90.53333333333333)"/></g><defs><path d="M15-91v-56l181-69v40L49-119l147 57v40" id="L"/><path d="M24 0v-248h195v40H76v63h132v40H76v65h150V0H24" id="M"/><path d="M135-194c87-1 58 113 63 194h-50c-7-57 23-157-34-157-59 0-34 97-39 157H25l-1-190h47c2 12-1 28 3 38 12-26 28-41 61-42" id="N"/><path d="M115-3C79 11 28 4 28-45v-112H4v-33h27l15-45h31v45h36v33H77v99c-1 23 16 31 38 25v30" id="O"/><path d="M25-224v-37h50v37H25zM25 0v-190h50V0H25" id="P"/><path d="M123 10C108 53 80 86 19 72V37c35 8 53-11 59-39L3-190h52l48 148c12-52 28-100 44-148h51" id="Q"/><path d="M15-22v-40l146-57-146-57v-40l181 69v56" id="R"/><g id="a"><use transform="matrix(0.0685185185185185,0,0,0.0685185185185185,0,0)" xlink:href="#L"/><use transform="matrix(0.0685185185185185,0,0,0.0685185185185185,14.388888888888886,0)" xlink:href="#L"/><use transform="matrix(0.0685185185185185,0,0,0.0685185185185185,28.77777777777777,0)" xlink:href="#M"/><use transform="matrix(0.0685185185185185,0,0,0.0685185185185185,45.222222222222214,0)" xlink:href="#N"/><use transform="matrix(0.0685185185185185,0,0,0.0685185185185185,60.22777777777777,0)" xlink:href="#O"/><use transform="matrix(0.0685185185185185,0,0,0.0685185185185185,68.38148148148147,0)" xlink:href="#P"/><use transform="matrix(0.0685185185185185,0,0,0.0685185185185185,75.23333333333332,0)" xlink:href="#O"/><use transform="matrix(0.0685185185185185,0,0,0.0685185185185185,83.38703703703702,0)" xlink:href="#Q"/><use transform="matrix(0.0685185185185185,0,0,0.0685185185185185,97.09074074074071,0)" xlink:href="#R"/><use transform="matrix(0.0685185185185185,0,0,0.0685185185185185,111.4796296296296,0)" xlink:href="#R"/></g><path d="M24-248c93 1 206-16 204 79-1 75-69 88-152 82V0H24v-248zm52 121c47 0 100 7 100-41 0-47-54-39-100-39v80" id="S"/><path d="M135-150c-39-12-60 13-60 57V0H25l-1-190h47c2 13-1 29 3 40 6-28 27-53 61-41v41" id="T"/><path d="M110-194c64 0 96 36 96 99 0 64-35 99-97 99-61 0-95-36-95-99 0-62 34-99 96-99zm-1 164c35 0 45-28 45-65 0-40-10-65-43-65-34 0-45 26-45 65 0 36 10 65 43 65" id="U"/><path d="M25-224v-37h50v37H25zM75 22c2 45-34 59-81 51V38c22 5 31-5 31-27v-201h50V22" id="V"/><path d="M185-48c-13 30-37 53-82 52C43 2 14-33 14-96s30-98 90-98c62 0 83 45 84 108H66c0 31 8 55 39 56 18 0 30-7 34-22zm-45-69c5-46-57-63-70-21-2 6-4 13-4 21h74" id="W"/><path d="M190-63c-7 42-38 67-86 67-59 0-84-38-90-98-12-110 154-137 174-36l-49 2c-2-19-15-32-35-32-30 0-35 28-38 64-6 74 65 87 74 30" id="X"/><g id="b"><use transform="matrix(0.0685185185185185,0,0,0.0685185185185185,0,0)" xlink:href="#S"/><use transform="matrix(0.0685185185185185,0,0,0.0685185185185185,16.444444444444443,0)" xlink:href="#T"/><use transform="matrix(0.0685185185185185,0,0,0.0685185185185185,26.037037037037038,0)" xlink:href="#U"/><use transform="matrix(0.0685185185185185,0,0,0.0685185185185185,41.042592592592584,0)" xlink:href="#V"/><use transform="matrix(0.0685185185185185,0,0,0.0685185185185185,47.89444444444443,0)" xlink:href="#W"/><use transform="matrix(0.0685185185185185,0,0,0.0685185185185185,61.598148148148134,0)" xlink:href="#X"/><use transform="matrix(0.0685185185185185,0,0,0.0685185185185185,75.30185185185184,0)" xlink:href="#O"/></g><path fill="#333" d="M190 0L58-211 59 0H30v-248h39L202-35l-2-213h31V0h-41" id="Y"/><path fill="#333" d="M141-36C126-15 110 5 73 4 37 3 15-17 15-53c-1-64 63-63 125-63 3-35-9-54-41-54-24 1-41 7-42 31l-33-3c5-37 33-52 76-52 45 0 72 20 72 64v82c-1 20 7 32 28 27v20c-31 9-61-2-59-35zM48-53c0 20 12 33 32 33 41-3 63-29 60-74-43 2-92-5-92 41" id="Z"/><path fill="#333" d="M210-169c-67 3-38 105-44 169h-31v-121c0-29-5-50-35-48C34-165 62-65 56 0H25l-1-190h30c1 10-1 24 2 32 10-44 99-50 107 0 11-21 27-35 58-36 85-2 47 119 55 194h-31v-121c0-29-5-49-35-48" id="aa"/><path fill="#333" d="M100-194c63 0 86 42 84 106H49c0 40 14 67 53 68 26 1 43-12 49-29l28 8c-11 28-37 45-77 45C44 4 14-33 15-96c1-61 26-98 85-98zm52 81c6-60-76-77-97-28-3 7-6 17-6 28h103" id="ab"/><g id="c"><use transform="matrix(0.0685185185185185,0,0,0.0685185185185185,0,0)" xlink:href="#Y"/><use transform="matrix(0.0685185185185185,0,0,0.0685185185185185,17.746296296296293,0)" xlink:href="#Z"/><use transform="matrix(0.0685185185185185,0,0,0.0685185185185185,31.449999999999996,0)" xlink:href="#aa"/><use transform="matrix(0.0685185185185185,0,0,0.0685185185185185,51.93703703703703,0)" xlink:href="#ab"/></g><path fill="#333" d="M127-220V0H93v-220H8v-28h204v28h-85" id="ac"/><path fill="#333" d="M177-190C167-65 218 103 67 71c-23-6-38-20-44-43l32-5c15 47 100 32 89-28v-30C133-14 115 1 83 1 29 1 15-40 15-95c0-56 16-97 71-98 29-1 48 16 59 35 1-10 0-23 2-32h30zM94-22c36 0 50-32 50-73 0-42-14-75-50-75-39 0-46 34-46 75s6 73 46 73" id="ad"/><g id="d"><use transform="matrix(0.0685185185185185,0,0,0.0685185185185185,0,0)" xlink:href="#ac"/><use transform="matrix(0.0685185185185185,0,0,0.0685185185185185,12.264814814814812,0)" xlink:href="#Z"/><use transform="matrix(0.0685185185185185,0,0,0.0685185185185185,25.968518518518515,0)" xlink:href="#ad"/></g><path d="M199 0l-22-63H83L61 0H9l90-248h61L250 0h-51zm-33-102l-36-108c-10 38-24 72-36 108h72" id="ae"/><path d="M195-6C206 82 75 100 31 46c-4-6-6-13-8-21l49-6c3 16 16 24 34 25 40 0 42-37 40-79-11 22-30 35-61 35-53 0-70-43-70-97 0-56 18-96 73-97 30 0 46 14 59 34l2-30h47zm-90-29c32 0 41-27 41-63 0-35-9-62-40-62-32 0-39 29-40 63 0 36 9 62 39 62" id="af"/><g id="e"><use transform="matrix(0.0685185185185185,0,0,0.0685185185185185,0,0)" xlink:href="#L"/><use transform="matrix(0.0685185185185185,0,0,0.0685185185185185,14.388888888888886,0)" xlink:href="#L"/><use transform="matrix(0.0685185185185185,0,0,0.0685185185185185,28.77777777777777,0)" xlink:href="#ae"/><use transform="matrix(0.0685185185185185,0,0,0.0685185185185185,46.524074074074065,0)" xlink:href="#af"/><use transform="matrix(0.0685185185185185,0,0,0.0685185185185185,61.52962962962962,0)" xlink:href="#W"/><use transform="matrix(0.0685185185185185,0,0,0.0685185185185185,75.23333333333332,0)" xlink:href="#N"/><use transform="matrix(0.0685185185185185,0,0,0.0685185185185185,90.23888888888887,0)" xlink:href="#O"/><use transform="matrix(0.0685185185185185,0,0,0.0685185185185185,98.39259259259258,0)" xlink:href="#R"/><use transform="matrix(0.0685185185185185,0,0,0.0685185185185185,112.78148148148146,0)" xlink:href="#R"/></g><path d="M128 0H69L1-190h53L99-40l48-150h52" id="ag"/><path d="M220-157c-53 9-28 100-34 157h-49v-107c1-27-5-49-29-50C55-147 81-57 75 0H25l-1-190h47c2 12-1 28 3 38 10-53 101-56 108 0 13-22 24-43 59-42 82 1 51 116 57 194h-49v-107c-1-25-5-48-29-50" id="ah"/><g id="f"><use transform="matrix(0.0685185185185185,0,0,0.0685185185185185,0,0)" xlink:href="#M"/><use transform="matrix(0.0685185185185185,0,0,0.0685185185185185,16.444444444444443,0)" xlink:href="#N"/><use transform="matrix(0.0685185185185185,0,0,0.0685185185185185,31.449999999999996,0)" xlink:href="#ag"/><use transform="matrix(0.0685185185185185,0,0,0.0685185185185185,45.1537037037037,0)" xlink:href="#P"/><use transform="matrix(0.0685185185185185,0,0,0.0685185185185185,52.005555555555546,0)" xlink:href="#T"/><use transform="matrix(0.0685185185185185,0,0,0.0685185185185185,61.598148148148134,0)" xlink:href="#U"/><use transform="matrix(0.0685185185185185,0,0,0.0685185185185185,76.6037037037037,0)" xlink:href="#N"/><use transform="matrix(0.0685185185185185,0,0,0.0685185185185185,91.60925925925926,0)" xlink:href="#ah"/><use transform="matrix(0.0685185185185185,0,0,0.0685185185185185,113.53518518518518,0)" xlink:href="#W"/><use transform="matrix(0.0685185185185185,0,0,0.0685185185185185,127.23888888888888,0)" xlink:href="#N"/><use transform="matrix(0.0685185185185185,0,0,0.0685185185185185,142.24444444444444,0)" xlink:href="#O"/></g><path fill="#333" d="M30 0v-248h187v28H63v79h144v27H63v87h162V0H30" id="ai"/><path fill="#333" d="M117-194c89-4 53 116 60 194h-32v-121c0-31-8-49-39-48C34-167 62-67 57 0H25l-1-190h30c1 10-1 24 2 32 11-22 29-35 61-36" id="aj"/><path fill="#333" d="M108 0H70L1-190h34L89-25l56-165h34" id="ak"/><path fill="#333" d="M137 0h-34L2-248h35l83 218 83-218h36" id="al"/><path fill="#333" d="M114-163C36-179 61-72 57 0H25l-1-190h30c1 12-1 29 2 39 6-27 23-49 58-41v29" id="am"/><path fill="#333" d="M24-231v-30h32v30H24zM24 0v-190h32V0H24" id="an"/><path fill="#333" d="M115-194c53 0 69 39 70 98 0 66-23 100-70 100C84 3 66-7 56-30L54 0H23l1-261h32v101c10-23 28-34 59-34zm-8 174c40 0 45-34 45-75 0-40-5-75-45-74-42 0-51 32-51 76 0 43 10 73 51 73" id="ao"/><path fill="#333" d="M24 0v-261h32V0H24" id="ap"/><path fill="#333" d="M135-143c-3-34-86-38-87 0 15 53 115 12 119 90S17 21 10-45l28-5c4 36 97 45 98 0-10-56-113-15-118-90-4-57 82-63 122-42 12 7 21 19 24 35" id="aq"/><g id="g"><use transform="matrix(0.0685185185185185,0,0,0.0685185185185185,0,0)" xlink:href="#ai"/><use transform="matrix(0.0685185185185185,0,0,0.0685185185185185,16.444444444444443,0)" xlink:href="#aj"/><use transform="matrix(0.0685185185185185,0,0,0.0685185185185185,30.148148148148145,0)" xlink:href="#ak"/><use transform="matrix(0.0685185185185185,0,0,0.0685185185185185,42.481481481481474,0)" xlink:href="#al"/><use transform="matrix(0.0685185185185185,0,0,0.0685185185185185,57.075925925925915,0)" xlink:href="#Z"/><use transform="matrix(0.0685185185185185,0,0,0.0685185185185185,70.77962962962961,0)" xlink:href="#am"/><use transform="matrix(0.0685185185185185,0,0,0.0685185185185185,78.93333333333331,0)" xlink:href="#an"/><use transform="matrix(0.0685185185185185,0,0,0.0685185185185185,84.34629629629626,0)" xlink:href="#Z"/><use transform="matrix(0.0685185185185185,0,0,0.0685185185185185,98.04999999999997,0)" xlink:href="#ao"/><use transform="matrix(0.0685185185185185,0,0,0.0685185185185185,111.75370370370366,0)" xlink:href="#ap"/><use transform="matrix(0.0685185185185185,0,0,0.0685185185185185,117.16666666666663,0)" xlink:href="#ab"/><use transform="matrix(0.0685185185185185,0,0,0.0685185185185185,130.87037037037032,0)" xlink:href="#aq"/></g><path d="M101-251c68 0 85 55 85 127S166 4 100 4C33 4 14-52 14-124c0-73 17-127 87-127zm-1 229c47 0 54-49 54-102s-4-102-53-102c-51 0-55 48-55 102 0 53 5 102 54 102" id="ar"/><path d="M33 0v-38h34V0H33" id="as"/><path d="M80-196l47-18 7 23-49 13 32 44-20 13-27-46-27 45-21-12 33-44-49-13 8-23 47 19-2-53h23" id="at"/><g id="h"><use transform="matrix(0.0685185185185185,0,0,0.0685185185185185,0,0)" xlink:href="#ar"/><use transform="matrix(0.0685185185185185,0,0,0.0685185185185185,13.7037037037037,0)" xlink:href="#as"/><use transform="matrix(0.0685185185185185,0,0,0.0685185185185185,20.555555555555554,0)" xlink:href="#as"/><use transform="matrix(0.0685185185185185,0,0,0.0685185185185185,27.4074074074074,0)" xlink:href="#at"/></g><path d="M27 0v-27h64v-190l-56 39v-29l58-41h29v221h61V0H27" id="au"/><g id="i"><use transform="matrix(0.0685185185185185,0,0,0.0685185185185185,0,0)" xlink:href="#ar"/><use transform="matrix(0.0685185185185185,0,0,0.0685185185185185,13.7037037037037,0)" xlink:href="#as"/><use transform="matrix(0.0685185185185185,0,0,0.0685185185185185,20.555555555555554,0)" xlink:href="#as"/><use transform="matrix(0.0685185185185185,0,0,0.0685185185185185,27.4074074074074,0)" xlink:href="#au"/></g><path d="M76-208v77h127v40H76V0H24v-248h183v40H76" id="av"/><path d="M25 0v-261h50V0H25" id="aw"/><g id="j"><use transform="matrix(0.0685185185185185,0,0,0.0685185185185185,0,0)" xlink:href="#av"/><use transform="matrix(0.0685185185185185,0,0,0.0685185185185185,15.005555555555553,0)" xlink:href="#P"/><use transform="matrix(0.0685185185185185,0,0,0.0685185185185185,21.857407407407404,0)" xlink:href="#aw"/><use transform="matrix(0.0685185185185185,0,0,0.0685185185185185,28.709259259259255,0)" xlink:href="#W"/></g><path fill="#333" d="M233-177c-1 41-23 64-60 70L243 0h-38l-65-103H63V0H30v-248c88 3 205-21 203 71zM63-129c60-2 137 13 137-47 0-61-80-42-137-45v92" id="ax"/><path fill="#333" d="M59-47c-2 24 18 29 38 22v24C64 9 27 4 27-40v-127H5v-23h24l9-43h21v43h35v23H59v120" id="ay"/><path fill="#333" d="M30-248c87 1 191-15 191 75 0 78-77 80-158 76V0H30v-248zm33 125c57 0 124 11 124-50 0-59-68-47-124-48v98" id="az"/><path fill="#333" d="M106-169C34-169 62-67 57 0H25v-261h32l-1 103c12-21 28-36 61-36 89 0 53 116 60 194h-32v-121c2-32-8-49-39-48" id="aA"/><g id="k"><use transform="matrix(0.0685185185185185,0,0,0.0685185185185185,0,0)" xlink:href="#ax"/><use transform="matrix(0.0685185185185185,0,0,0.0685185185185185,17.746296296296293,0)" xlink:href="#ab"/><use transform="matrix(0.0685185185185185,0,0,0.0685185185185185,31.449999999999996,0)" xlink:href="#ap"/><use transform="matrix(0.0685185185185185,0,0,0.0685185185185185,36.86296296296297,0)" xlink:href="#Z"/><use transform="matrix(0.0685185185185185,0,0,0.0685185185185185,50.56666666666666,0)" xlink:href="#ay"/><use transform="matrix(0.0685185185185185,0,0,0.0685185185185185,57.41851851851851,0)" xlink:href="#an"/><use transform="matrix(0.0685185185185185,0,0,0.0685185185185185,62.831481481481475,0)" xlink:href="#ak"/><use transform="matrix(0.0685185185185185,0,0,0.0685185185185185,75.1648148148148,0)" xlink:href="#ab"/><use transform="matrix(0.0685185185185185,0,0,0.0685185185185185,88.8685185185185,0)" xlink:href="#az"/><use transform="matrix(0.0685185185185185,0,0,0.0685185185185185,105.31296296296294,0)" xlink:href="#Z"/><use transform="matrix(0.0685185185185185,0,0,0.0685185185185185,119.01666666666662,0)" xlink:href="#ay"/><use transform="matrix(0.0685185185185185,0,0,0.0685185185185185,125.86851851851848,0)" xlink:href="#aA"/></g><path fill="#333" d="M205 0l-28-72H64L36 0H1l101-248h38L239 0h-34zm-38-99l-47-123c-12 45-31 82-46 123h93" id="aB"/><path fill="#333" d="M100-194c62-1 85 37 85 99 1 63-27 99-86 99S16-35 15-95c0-66 28-99 85-99zM99-20c44 1 53-31 53-75 0-43-8-75-51-75s-53 32-53 75 10 74 51 75" id="aC"/><path fill="#333" d="M84 4C-5 8 30-112 23-190h32v120c0 31 7 50 39 49 72-2 45-101 50-169h31l1 190h-30c-1-10 1-25-2-33-11 22-28 36-60 37" id="aD"/><g id="l"><use transform="matrix(0.0685185185185185,0,0,0.0685185185185185,0,0)" xlink:href="#aB"/><use transform="matrix(0.0685185185185185,0,0,0.0685185185185185,16.444444444444443,0)" xlink:href="#ao"/><use transform="matrix(0.0685185185185185,0,0,0.0685185185185185,30.148148148148145,0)" xlink:href="#aq"/><use transform="matrix(0.0685185185185185,0,0,0.0685185185185185,42.481481481481474,0)" xlink:href="#aC"/><use transform="matrix(0.0685185185185185,0,0,0.0685185185185185,56.185185185185176,0)" xlink:href="#ap"/><use transform="matrix(0.0685185185185185,0,0,0.0685185185185185,61.598148148148134,0)" xlink:href="#aD"/><use transform="matrix(0.0685185185185185,0,0,0.0685185185185185,75.30185185185184,0)" xlink:href="#ay"/><use transform="matrix(0.0685185185185185,0,0,0.0685185185185185,82.15370370370368,0)" xlink:href="#ab"/><use transform="matrix(0.0685185185185185,0,0,0.0685185185185185,95.85740740740738,0)" xlink:href="#az"/><use transform="matrix(0.0685185185185185,0,0,0.0685185185185185,112.30185185185182,0)" xlink:href="#Z"/><use transform="matrix(0.0685185185185185,0,0,0.0685185185185185,126.00555555555552,0)" xlink:href="#ay"/><use transform="matrix(0.0685185185185185,0,0,0.0685185185185185,132.85740740740738,0)" xlink:href="#aA"/></g><path d="M169-182c-1-43-94-46-97-3 18 66 151 10 154 114 3 95-165 93-204 36-6-8-10-19-12-30l50-8c3 46 112 56 116 5-17-69-150-10-154-114-4-87 153-88 188-35 5 8 8 18 10 28" id="aE"/><path d="M133-34C117-15 103 5 69 4 32 3 11-16 11-54c-1-60 55-63 116-61 1-26-3-47-28-47-18 1-26 9-28 27l-52-2c7-38 36-58 82-57s74 22 75 68l1 82c-1 14 12 18 25 15v27c-30 8-71 5-69-32zm-48 3c29 0 43-24 42-57-32 0-66-3-65 30 0 17 8 27 23 27" id="aF"/><path d="M135-194c53 0 70 44 70 98 0 56-19 98-73 100-31 1-45-17-59-34 3 33 2 69 2 105H25l-1-265h48c2 10 0 23 3 31 11-24 29-35 60-35zM114-30c33 0 39-31 40-66 0-38-9-64-40-64-56 0-55 130 0 130" id="aG"/><g id="m"><use transform="matrix(0.0685185185185185,0,0,0.0685185185185185,0,0)" xlink:href="#aE"/><use transform="matrix(0.0685185185185185,0,0,0.0685185185185185,16.444444444444443,0)" xlink:href="#aF"/><use transform="matrix(0.0685185185185185,0,0,0.0685185185185185,30.148148148148145,0)" xlink:href="#ah"/><use transform="matrix(0.0685185185185185,0,0,0.0685185185185185,52.074074074074076,0)" xlink:href="#aG"/><use transform="matrix(0.0685185185185185,0,0,0.0685185185185185,67.07962962962962,0)" xlink:href="#aw"/><use transform="matrix(0.0685185185185185,0,0,0.0685185185185185,73.93148148148147,0)" xlink:href="#W"/></g><path fill="#333" d="M185-189c-5-48-123-54-124 2 14 75 158 14 163 119 3 78-121 87-175 55-17-10-28-26-33-46l33-7c5 56 141 63 141-1 0-78-155-14-162-118-5-82 145-84 179-34 5 7 8 16 11 25" id="aH"/><path fill="#333" d="M96-169c-40 0-48 33-48 73s9 75 48 75c24 0 41-14 43-38l32 2c-6 37-31 61-74 61-59 0-76-41-82-99-10-93 101-131 147-64 4 7 5 14 7 22l-32 3c-4-21-16-35-41-35" id="aI"/><g id="n"><use transform="matrix(0.0685185185185185,0,0,0.0685185185185185,0,0)" xlink:href="#aH"/><use transform="matrix(0.0685185185185185,0,0,0.0685185185185185,16.444444444444443,0)" xlink:href="#aC"/><use transform="matrix(0.0685185185185185,0,0,0.0685185185185185,30.148148148148145,0)" xlink:href="#aD"/><use transform="matrix(0.0685185185185185,0,0,0.0685185185185185,43.85185185185185,0)" xlink:href="#am"/><use transform="matrix(0.0685185185185185,0,0,0.0685185185185185,52.005555555555546,0)" xlink:href="#aI"/><use transform="matrix(0.0685185185185185,0,0,0.0685185185185185,64.33888888888887,0)" xlink:href="#ab"/></g><g id="o"><use transform="matrix(0.0685185185185185,0,0,0.0685185185185185,0,0)" xlink:href="#aB"/><use transform="matrix(0.0685185185185185,0,0,0.0685185185185185,16.444444444444443,0)" xlink:href="#ay"/><use transform="matrix(0.0685185185185185,0,0,0.0685185185185185,23.29629629629629,0)" xlink:href="#ay"/><use transform="matrix(0.0685185185185185,0,0,0.0685185185185185,30.148148148148145,0)" xlink:href="#am"/><use transform="matrix(0.0685185185185185,0,0,0.0685185185185185,38.30185185185185,0)" xlink:href="#an"/><use transform="matrix(0.0685185185185185,0,0,0.0685185185185185,43.714814814814815,0)" xlink:href="#ao"/><use transform="matrix(0.0685185185185185,0,0,0.0685185185185185,57.41851851851852,0)" xlink:href="#aD"/><use transform="matrix(0.0685185185185185,0,0,0.0685185185185185,71.12222222222222,0)" xlink:href="#ay"/><use transform="matrix(0.0685185185185185,0,0,0.0685185185185185,77.97407407407405,0)" xlink:href="#ab"/><use transform="matrix(0.0685185185185185,0,0,0.0685185185185185,91.67777777777776,0)" xlink:href="#aq"/></g><path fill="#333" d="M212-179c-10-28-35-45-73-45-59 0-87 40-87 99 0 60 29 101 89 101 43 0 62-24 78-52l27 14C228-24 195 4 139 4 59 4 22-46 18-125c-6-104 99-153 187-111 19 9 31 26 39 46" id="aJ"/><g id="p"><use transform="matrix(0.0685185185185185,0,0,0.0685185185185185,0,0)" xlink:href="#aJ"/><use transform="matrix(0.0685185185185185,0,0,0.0685185185185185,17.746296296296293,0)" xlink:href="#aC"/><use transform="matrix(0.0685185185185185,0,0,0.0685185185185185,31.449999999999996,0)" xlink:href="#aj"/><use transform="matrix(0.0685185185185185,0,0,0.0685185185185185,45.1537037037037,0)" xlink:href="#ay"/><use transform="matrix(0.0685185185185185,0,0,0.0685185185185185,52.005555555555546,0)" xlink:href="#Z"/><use transform="matrix(0.0685185185185185,0,0,0.0685185185185185,65.70925925925924,0)" xlink:href="#an"/><use transform="matrix(0.0685185185185185,0,0,0.0685185185185185,71.1222222222222,0)" xlink:href="#aj"/><use transform="matrix(0.0685185185185185,0,0,0.0685185185185185,84.8259259259259,0)" xlink:href="#aq"/></g><g id="q"><use transform="matrix(0.0685185185185185,0,0,0.0685185185185185,0,0)" xlink:href="#L"/><use transform="matrix(0.0685185185185185,0,0,0.0685185185185185,14.388888888888886,0)" xlink:href="#L"/><use transform="matrix(0.0685185185185185,0,0,0.0685185185185185,28.77777777777777,0)" xlink:href="#ae"/><use transform="matrix(0.0685185185185185,0,0,0.0685185185185185,46.524074074074065,0)" xlink:href="#X"/><use transform="matrix(0.0685185185185185,0,0,0.0685185185185185,60.22777777777777,0)" xlink:href="#O"/><use transform="matrix(0.0685185185185185,0,0,0.0685185185185185,68.38148148148147,0)" xlink:href="#P"/><use transform="matrix(0.0685185185185185,0,0,0.0685185185185185,75.23333333333332,0)" xlink:href="#ag"/><use transform="matrix(0.0685185185185185,0,0,0.0685185185185185,88.93703703703702,0)" xlink:href="#P"/><use transform="matrix(0.0685185185185185,0,0,0.0685185185185185,95.78888888888886,0)" xlink:href="#O"/><use transform="matrix(0.0685185185185185,0,0,0.0685185185185185,103.94259259259256,0)" xlink:href="#Q"/><use transform="matrix(0.0685185185185185,0,0,0.0685185185185185,117.64629629629626,0)" xlink:href="#R"/><use transform="matrix(0.0685185185185185,0,0,0.0685185185185185,132.03518518518513,0)" xlink:href="#R"/></g><g id="r"><use transform="matrix(0.0685185185185185,0,0,0.0685185185185185,0,0)" xlink:href="#S"/><use transform="matrix(0.0685185185185185,0,0,0.0685185185185185,16.444444444444443,0)" xlink:href="#T"/><use transform="matrix(0.0685185185185185,0,0,0.0685185185185185,26.037037037037038,0)" xlink:href="#U"/><use transform="matrix(0.0685185185185185,0,0,0.0685185185185185,41.042592592592584,0)" xlink:href="#af"/><use transform="matrix(0.0685185185185185,0,0,0.0685185185185185,56.04814814814814,0)" xlink:href="#T"/><use transform="matrix(0.0685185185185185,0,0,0.0685185185185185,65.64074074074072,0)" xlink:href="#aF"/><use transform="matrix(0.0685185185185185,0,0,0.0685185185185185,79.34444444444442,0)" xlink:href="#ah"/></g><path fill="#333" d="M85-194c31 0 48 13 60 33l-1-100h32l1 261h-30c-2-10 0-23-3-31C134-8 116 4 85 4 32 4 16-35 15-94c0-66 23-100 70-100zm9 24c-40 0-46 34-46 75 0 40 6 74 45 74 42 0 51-32 51-76 0-42-9-74-50-73" id="aK"/><g id="s"><use transform="matrix(0.0685185185185185,0,0,0.0685185185185185,0,0)" xlink:href="#aJ"/><use transform="matrix(0.0685185185185185,0,0,0.0685185185185185,17.746296296296293,0)" xlink:href="#aC"/><use transform="matrix(0.0685185185185185,0,0,0.0685185185185185,31.449999999999996,0)" xlink:href="#aa"/><use transform="matrix(0.0685185185185185,0,0,0.0685185185185185,51.93703703703703,0)" xlink:href="#aa"/><use transform="matrix(0.0685185185185185,0,0,0.0685185185185185,72.42407407407407,0)" xlink:href="#Z"/><use transform="matrix(0.0685185185185185,0,0,0.0685185185185185,86.12777777777777,0)" xlink:href="#aj"/><use transform="matrix(0.0685185185185185,0,0,0.0685185185185185,99.83148148148146,0)" xlink:href="#aK"/><use transform="matrix(0.0685185185185185,0,0,0.0685185185185185,113.53518518518516,0)" xlink:href="#aH"/><use transform="matrix(0.0685185185185185,0,0,0.0685185185185185,129.97962962962958,0)" xlink:href="#ay"/><use transform="matrix(0.0685185185185185,0,0,0.0685185185185185,136.83148148148143,0)" xlink:href="#am"/><use transform="matrix(0.0685185185185185,0,0,0.0685185185185185,144.98518518518517,0)" xlink:href="#an"/><use transform="matrix(0.0685185185185185,0,0,0.0685185185185185,150.3981481481481,0)" xlink:href="#aj"/><use transform="matrix(0.0685185185185185,0,0,0.0685185185185185,164.1018518518518,0)" xlink:href="#ad"/></g><use transform="matrix(0.0685185185185185,0,0,0.0685185185185185,0,0)" xlink:href="#au" id="t"/><path fill="#333" d="M141 0L90-78 38 0H4l68-98-65-92h35l48 74 47-74h35l-64 92 68 98h-35" id="aL"/><path fill="#333" d="M33 0v-248h34V0H33" id="aM"/><g id="u"><use transform="matrix(0.0685185185185185,0,0,0.0685185185185185,0,0)" xlink:href="#ai"/><use transform="matrix(0.0685185185185185,0,0,0.0685185185185185,16.444444444444443,0)" xlink:href="#aL"/><use transform="matrix(0.0685185185185185,0,0,0.0685185185185185,28.77777777777777,0)" xlink:href="#ab"/><use transform="matrix(0.0685185185185185,0,0,0.0685185185185185,42.481481481481474,0)" xlink:href="#aI"/><use transform="matrix(0.0685185185185185,0,0,0.0685185185185185,54.8148148148148,0)" xlink:href="#aD"/><use transform="matrix(0.0685185185185185,0,0,0.0685185185185185,68.5185185185185,0)" xlink:href="#ay"/><use transform="matrix(0.0685185185185185,0,0,0.0685185185185185,75.37037037037035,0)" xlink:href="#ab"/><use transform="matrix(0.0685185185185185,0,0,0.0685185185185185,89.07407407407405,0)" xlink:href="#aK"/><use transform="matrix(0.0685185185185185,0,0,0.0685185185185185,102.77777777777774,0)" xlink:href="#aM"/><use transform="matrix(0.0685185185185185,0,0,0.0685185185185185,109.62962962962959,0)" xlink:href="#aj"/></g><g id="v"><use transform="matrix(0.0685185185185185,0,0,0.0685185185185185,0,0)" xlink:href="#aJ"/><use transform="matrix(0.0685185185185185,0,0,0.0685185185185185,17.746296296296293,0)" xlink:href="#aC"/><use transform="matrix(0.0685185185185185,0,0,0.0685185185185185,31.449999999999996,0)" xlink:href="#aj"/><use transform="matrix(0.0685185185185185,0,0,0.0685185185185185,45.1537037037037,0)" xlink:href="#aq"/><use transform="matrix(0.0685185185185185,0,0,0.0685185185185185,57.48703703703703,0)" xlink:href="#aD"/><use transform="matrix(0.0685185185185185,0,0,0.0685185185185185,71.19074074074072,0)" xlink:href="#aa"/><use transform="matrix(0.0685185185185185,0,0,0.0685185185185185,91.67777777777775,0)" xlink:href="#ab"/><use transform="matrix(0.0685185185185185,0,0,0.0685185185185185,105.38148148148144,0)" xlink:href="#aq"/></g><path fill="#333" d="M0 4l72-265h28L28 4H0" id="aN"/><g id="w"><use transform="matrix(0.0685185185185185,0,0,0.0685185185185185,0,0)" xlink:href="#aJ"/><use transform="matrix(0.0685185185185185,0,0,0.0685185185185185,17.746296296296293,0)" xlink:href="#aC"/><use transform="matrix(0.0685185185185185,0,0,0.0685185185185185,31.449999999999996,0)" xlink:href="#aj"/><use transform="matrix(0.0685185185185185,0,0,0.0685185185185185,45.1537037037037,0)" xlink:href="#aq"/><use transform="matrix(0.0685185185185185,0,0,0.0685185185185185,57.48703703703703,0)" xlink:href="#aD"/><use transform="matrix(0.0685185185185185,0,0,0.0685185185185185,71.19074074074072,0)" xlink:href="#aa"/><use transform="matrix(0.0685185185185185,0,0,0.0685185185185185,91.67777777777775,0)" xlink:href="#ab"/><use transform="matrix(0.0685185185185185,0,0,0.0685185185185185,105.38148148148144,0)" xlink:href="#aq"/><use transform="matrix(0.0685185185185185,0,0,0.0685185185185185,117.71481481481477,0)" xlink:href="#aN"/><use transform="matrix(0.0685185185185185,0,0,0.0685185185185185,124.56666666666662,0)" xlink:href="#az"/><use transform="matrix(0.0685185185185185,0,0,0.0685185185185185,141.01111111111106,0)" xlink:href="#am"/><use transform="matrix(0.0685185185185185,0,0,0.0685185185185185,149.16481481481478,0)" xlink:href="#aC"/><use transform="matrix(0.0685185185185185,0,0,0.0685185185185185,162.86851851851847,0)" xlink:href="#aK"/><use transform="matrix(0.0685185185185185,0,0,0.0685185185185185,176.57222222222217,0)" xlink:href="#aD"/><use transform="matrix(0.0685185185185185,0,0,0.0685185185185185,190.27592592592586,0)" xlink:href="#aI"/><use transform="matrix(0.0685185185185185,0,0,0.0685185185185185,202.6092592592592,0)" xlink:href="#ab"/><use transform="matrix(0.0685185185185185,0,0,0.0685185185185185,216.3129629629629,0)" xlink:href="#aq"/></g><g id="x"><use transform="matrix(0.0685185185185185,0,0,0.0685185185185185,0,0)" xlink:href="#aJ"/><use transform="matrix(0.0685185185185185,0,0,0.0685185185185185,17.746296296296293,0)" xlink:href="#aC"/><use transform="matrix(0.0685185185185185,0,0,0.0685185185185185,31.449999999999996,0)" xlink:href="#aj"/><use transform="matrix(0.0685185185185185,0,0,0.0685185185185185,45.1537037037037,0)" xlink:href="#aq"/><use transform="matrix(0.0685185185185185,0,0,0.0685185185185185,57.48703703703703,0)" xlink:href="#aD"/><use transform="matrix(0.0685185185185185,0,0,0.0685185185185185,71.19074074074072,0)" xlink:href="#aa"/><use transform="matrix(0.0685185185185185,0,0,0.0685185185185185,91.67777777777775,0)" xlink:href="#ab"/><use transform="matrix(0.0685185185185185,0,0,0.0685185185185185,105.38148148148144,0)" xlink:href="#aq"/><use transform="matrix(0.0685185185185185,0,0,0.0685185185185185,117.71481481481477,0)" xlink:href="#al"/><use transform="matrix(0.0685185185185185,0,0,0.0685185185185185,132.30925925925922,0)" xlink:href="#Z"/><use transform="matrix(0.0685185185185185,0,0,0.0685185185185185,146.01296296296292,0)" xlink:href="#ap"/><use transform="matrix(0.0685185185185185,0,0,0.0685185185185185,151.42592592592587,0)" xlink:href="#aD"/><use transform="matrix(0.0685185185185185,0,0,0.0685185185185185,165.12962962962956,0)" xlink:href="#ab"/></g><path fill="#333" d="M197 0v-115H63V0H30v-248h33v105h134v-105h34V0h-34" id="aO"/><g id="y"><use transform="matrix(0.0685185185185185,0,0,0.0685185185185185,0,0)" xlink:href="#aO"/><use transform="matrix(0.0685185185185185,0,0,0.0685185185185185,17.746296296296293,0)" xlink:href="#Z"/><use transform="matrix(0.0685185185185185,0,0,0.0685185185185185,31.449999999999996,0)" xlink:href="#aq"/></g><g id="z"><use transform="matrix(0.06790123456790124,0,0,0.06790123456790124,0,0)" xlink:href="#ar"/><use transform="matrix(0.06790123456790124,0,0,0.06790123456790124,13.580246913580249,0)" xlink:href="#as"/><use transform="matrix(0.06790123456790124,0,0,0.06790123456790124,20.370370370370374,0)" xlink:href="#as"/><use transform="matrix(0.06790123456790124,0,0,0.06790123456790124,27.160493827160497,0)" xlink:href="#at"/></g><g id="A"><use transform="matrix(0.06790123456790124,0,0,0.06790123456790124,0,0)" xlink:href="#aJ"/><use transform="matrix(0.06790123456790124,0,0,0.06790123456790124,17.58641975308642,0)" xlink:href="#aC"/><use transform="matrix(0.06790123456790124,0,0,0.06790123456790124,31.16666666666667,0)" xlink:href="#aj"/><use transform="matrix(0.06790123456790124,0,0,0.06790123456790124,44.74691358024692,0)" xlink:href="#ay"/><use transform="matrix(0.06790123456790124,0,0,0.06790123456790124,51.537037037037045,0)" xlink:href="#Z"/><use transform="matrix(0.06790123456790124,0,0,0.06790123456790124,65.11728395061729,0)" xlink:href="#an"/><use transform="matrix(0.06790123456790124,0,0,0.06790123456790124,70.4814814814815,0)" xlink:href="#aj"/><use transform="matrix(0.06790123456790124,0,0,0.06790123456790124,84.06172839506176,0)" xlink:href="#aq"/></g><path d="M238-95c0 69-44 99-111 99C63 4 22-25 22-93v-155h51v151c-1 38 19 59 55 60 90 1 49-130 58-211h52v153" id="aP"/><path d="M137-138c1-29-70-34-71-4 15 46 118 7 119 86 1 83-164 76-172 9l43-7c4 19 20 25 44 25 33 8 57-30 24-41C81-84 22-81 20-136c-2-80 154-74 161-7" id="aQ"/><g id="B"><use transform="matrix(0.0685185185185185,0,0,0.0685185185185185,0,0)" xlink:href="#aP"/><use transform="matrix(0.0685185185185185,0,0,0.0685185185185185,17.746296296296293,0)" xlink:href="#aQ"/><use transform="matrix(0.0685185185185185,0,0,0.0685185185185185,31.449999999999996,0)" xlink:href="#W"/><use transform="matrix(0.0685185185185185,0,0,0.0685185185185185,45.1537037037037,0)" xlink:href="#T"/></g><path fill="#333" d="M232-93c-1 65-40 97-104 97C67 4 28-28 28-90v-158h33c8 89-33 224 67 224 102 0 64-133 71-224h33v155" id="aR"/><g id="C"><use transform="matrix(0.0685185185185185,0,0,0.0685185185185185,0,0)" xlink:href="#aR"/><use transform="matrix(0.0685185185185185,0,0,0.0685185185185185,17.746296296296293,0)" xlink:href="#aq"/><use transform="matrix(0.0685185185185185,0,0,0.0685185185185185,30.079629629629622,0)" xlink:href="#ab"/><use transform="matrix(0.0685185185185185,0,0,0.0685185185185185,43.783333333333324,0)" xlink:href="#am"/><use transform="matrix(0.0685185185185185,0,0,0.0685185185185185,51.93703703703703,0)" xlink:href="#aj"/><use transform="matrix(0.0685185185185185,0,0,0.0685185185185185,65.64074074074072,0)" xlink:href="#Z"/><use transform="matrix(0.0685185185185185,0,0,0.0685185185185185,79.34444444444442,0)" xlink:href="#aa"/><use transform="matrix(0.0685185185185185,0,0,0.0685185185185185,99.83148148148146,0)" xlink:href="#ab"/></g><g id="D"><use transform="matrix(0.0685185185185185,0,0,0.0685185185185185,0,0)" xlink:href="#aM"/><use transform="matrix(0.0685185185185185,0,0,0.0685185185185185,6.85185185185185,0)" xlink:href="#aj"/><use transform="matrix(0.0685185185185185,0,0,0.0685185185185185,20.555555555555554,0)" xlink:href="#aq"/><use transform="matrix(0.0685185185185185,0,0,0.0685185185185185,32.88888888888888,0)" xlink:href="#ay"/><use transform="matrix(0.0685185185185185,0,0,0.0685185185185185,39.740740740740726,0)" xlink:href="#an"/><use transform="matrix(0.0685185185185185,0,0,0.0685185185185185,45.15370370370369,0)" xlink:href="#ay"/><use transform="matrix(0.0685185185185185,0,0,0.0685185185185185,52.00555555555554,0)" xlink:href="#aD"/><use transform="matrix(0.0685185185185185,0,0,0.0685185185185185,65.70925925925924,0)" xlink:href="#ay"/><use transform="matrix(0.0685185185185185,0,0,0.0685185185185185,72.56111111111109,0)" xlink:href="#an"/><use transform="matrix(0.0685185185185185,0,0,0.0685185185185185,77.97407407407405,0)" xlink:href="#aC"/><use transform="matrix(0.0685185185185185,0,0,0.0685185185185185,91.67777777777775,0)" xlink:href="#aj"/></g><g id="E"><use transform="matrix(0.0685185185185185,0,0,0.0685185185185185,0,0)" xlink:href="#au"/><use transform="matrix(0.0685185185185185,0,0,0.0685185185185185,13.7037037037037,0)" xlink:href="#as"/><use transform="matrix(0.0685185185185185,0,0,0.0685185185185185,20.555555555555554,0)" xlink:href="#as"/><use transform="matrix(0.0685185185185185,0,0,0.0685185185185185,27.4074074074074,0)" xlink:href="#at"/></g><g id="F"><use transform="matrix(0.0685185185185185,0,0,0.0685185185185185,0,0)" xlink:href="#S"/><use transform="matrix(0.0685185185185185,0,0,0.0685185185185185,16.444444444444443,0)" xlink:href="#aF"/><use transform="matrix(0.0685185185185185,0,0,0.0685185185185185,30.148148148148145,0)" xlink:href="#T"/><use transform="matrix(0.0685185185185185,0,0,0.0685185185185185,39.74074074074073,0)" xlink:href="#aF"/><use transform="matrix(0.0685185185185185,0,0,0.0685185185185185,53.444444444444436,0)" xlink:href="#ah"/><use transform="matrix(0.0685185185185185,0,0,0.0685185185185185,75.37037037037035,0)" xlink:href="#W"/><use transform="matrix(0.0685185185185185,0,0,0.0685185185185185,89.07407407407405,0)" xlink:href="#O"/><use transform="matrix(0.0685185185185185,0,0,0.0685185185185185,97.22777777777775,0)" xlink:href="#W"/><use transform="matrix(0.0685185185185185,0,0,0.0685185185185185,110.93148148148144,0)" xlink:href="#T"/></g><g id="G"><use transform="matrix(0.0685185185185185,0,0,0.0685185185185185,0,0)" xlink:href="#al"/><use transform="matrix(0.0685185185185185,0,0,0.0685185185185185,14.594444444444443,0)" xlink:href="#Z"/><use transform="matrix(0.0685185185185185,0,0,0.0685185185185185,28.298148148148144,0)" xlink:href="#ap"/><use transform="matrix(0.0685185185185185,0,0,0.0685185185185185,33.71111111111111,0)" xlink:href="#aD"/><use transform="matrix(0.0685185185185185,0,0,0.0685185185185185,47.41481481481481,0)" xlink:href="#ab"/></g><path d="M240-174c0 40-23 61-54 70L253 0h-59l-57-94H76V0H24v-248c93 4 217-23 216 74zM76-134c48-2 112 12 112-38 0-48-66-32-112-35v73" id="aS"/><path d="M85 4C-2 5 27-109 22-190h50c7 57-23 150 33 157 60-5 35-97 40-157h50l1 190h-47c-2-12 1-28-3-38-12 25-28 42-61 42" id="aT"/><g id="H"><use transform="matrix(0.0685185185185185,0,0,0.0685185185185185,0,0)" xlink:href="#aS"/><use transform="matrix(0.0685185185185185,0,0,0.0685185185185185,17.746296296296293,0)" xlink:href="#aT"/><use transform="matrix(0.0685185185185185,0,0,0.0685185185185185,32.751851851851846,0)" xlink:href="#N"/></g><g id="I"><use transform="matrix(0.0685185185185185,0,0,0.0685185185185185,0,0)" xlink:href="#aH"/><use transform="matrix(0.0685185185185185,0,0,0.0685185185185185,16.444444444444443,0)" xlink:href="#ay"/><use transform="matrix(0.0685185185185185,0,0,0.0685185185185185,23.29629629629629,0)" xlink:href="#Z"/><use transform="matrix(0.0685185185185185,0,0,0.0685185185185185,36.99999999999999,0)" xlink:href="#am"/><use transform="matrix(0.0685185185185185,0,0,0.0685185185185185,45.1537037037037,0)" xlink:href="#ay"/><use transform="matrix(0.0685185185185185,0,0,0.0685185185185185,52.005555555555546,0)" xlink:href="#ac"/><use transform="matrix(0.0685185185185185,0,0,0.0685185185185185,66.12037037037035,0)" xlink:href="#an"/><use transform="matrix(0.0685185185185185,0,0,0.0685185185185185,71.53333333333332,0)" xlink:href="#aa"/><use transform="matrix(0.0685185185185185,0,0,0.0685185185185185,92.02037037037036,0)" xlink:href="#ab"/></g><g id="J"><use transform="matrix(0.0685185185185185,0,0,0.0685185185185185,0,0)" xlink:href="#ai"/><use transform="matrix(0.0685185185185185,0,0,0.0685185185185185,16.444444444444443,0)" xlink:href="#aj"/><use transform="matrix(0.0685185185185185,0,0,0.0685185185185185,30.148148148148145,0)" xlink:href="#aK"/><use transform="matrix(0.0685185185185185,0,0,0.0685185185185185,43.85185185185185,0)" xlink:href="#ac"/><use transform="matrix(0.0685185185185185,0,0,0.0685185185185185,57.96666666666666,0)" xlink:href="#an"/><use transform="matrix(0.0685185185185185,0,0,0.0685185185185185,63.379629629629626,0)" xlink:href="#aa"/><use transform="matrix(0.0685185185185185,0,0,0.0685185185185185,83.86666666666667,0)" xlink:href="#ab"/></g><g id="K"><use transform="matrix(0.0685185185185185,0,0,0.0685185185185185,0,0)" xlink:href="#aH"/><use transform="matrix(0.0685185185185185,0,0,0.0685185185185185,16.444444444444443,0)" xlink:href="#ay"/><use transform="matrix(0.0685185185185185,0,0,0.0685185185185185,23.29629629629629,0)" xlink:href="#Z"/><use transform="matrix(0.0685185185185185,0,0,0.0685185185185185,36.99999999999999,0)" xlink:href="#ay"/><use transform="matrix(0.0685185185185185,0,0,0.0685185185185185,43.85185185185185,0)" xlink:href="#aD"/><use transform="matrix(0.0685185185185185,0,0,0.0685185185185185,57.55555555555554,0)" xlink:href="#aq"/></g></defs></g></svg>